<?xml version="1.0" encoding="UTF-8"?>
<svg id="Layer_1" data-name="Layer 1" xmlns="http://www.w3.org/2000/svg" viewBox="0 0 100 90.96">
  <defs>
    <style>
      .cls-1 {
        fill: #8cc63f;
      }

      .cls-2 {
        fill: #009245;
      }
    </style>
  </defs>
  <path class="cls-2" d="M47.19,0c.14,1.12-.46,1.18-1.06,1.73s-1.32,1.01-2.14,1.57c-1.17.79-2.91,1.61-3.97,2.42-.29.22.08.55-.13.66-.69.38-1.71-.1-1.32.78-.89.09-1.07,1.11-1.81,1.76-.51.45-2.1,1.14-2.49,1.49-.28.25-.21.8-.37.96-.05.05-.85-.24-1.3.16-.39.35-.17,1.02-.39,1.47-.2.41-2.36,1.91-2.66,2.65l-.65-.53c.13.86-1.97.41-1.59,1.71.15.5,1.09.16,1.06.67l-1.47.24c0,1.18-.43,1.71-.92,2.67l-1.05-.53-.27,1.59.79-.13-1.06,1.72c-.64-.07-.16-1.33-1.05-1.06-.28.27-.24,1.66-.33,1.99-.03.12-.38.07-.5.53-.18.69.03,1.29.01,1.97l-1.31.29c.72,1.71-1.21,3.84-1.83,5.47l.51.75c-1.38.76-.72,1.98-.97,2.73-.09.27-.5.31-.6.53-.09.21-1.19,3.32-1.19,3.51,0,.43.34.59.34.92,0,.6-.26,1.31-.07,2.01-1.99.26-2.19,2.33.11,2.11.21,1.01-1.46.24-1.87.96v.89s1.08,0,1.08,0c-.2.34.03.95-.03,1.15-.04.17-1.76,1.36-.24,1.9l-2.12.67c-.73.62,2,.94,2.11,1.08-.15,1.3-.19,2.7-.1,4,.04.59.45,1.5.39,1.91-.02.15-.81.1-.55,1.07l1.34.43-.79,1.06.81.15.51,2.37c-.78-.1-1.08-.2-1.59.53.7,1.02,1.64.65,2.64.4-.38,1.23.3,1.37.51,1.8.26.5.12,1.26.95,1.39.18.03,0-.98.53-.27s.06.94.13,1.41c.03.2.39.19.42.25.09.18-.13.44.1.6.31.21.62-.16.76-.09.09.05,1.17.86,1.54,1.11.58.4.71,1.33,1.38,1.72.35.2.93.17,1.24.56l.39-.53c-.03.14-.02.35.1.43,1.65,1.2,2.03,1.44,3.97,2.24.2.08,1.03.99,1.1.99.92,0,.96-.81,1.21,1.09l2.64-.52-.17.8-.89.26,2.65.4c-.17-.49-1.48-.55-.92-1.2l2.65,1.33.13-.8h.79s-.27.67-.27.67c.93.36,1.15-.41,1.23-.41.93-.12,1.04.03,2.08-.19,1.81-.38,1.5.6,1.88.7.32.08,1.65-.49,2.24-.24l-1.06-.52,1.47.23c.47-.92,2.21-.35,3.44-.74.81-.26,1.29-1.4,2.5-.28l-.53.52h1.32s-1.06-1.32-1.06-1.32c.58-.17,2.63-.2,3.05-.37.81-.32,1.23-1.55,2.75-1.27l.04-.75.39.53c.28-.08,2.4-1.24,2.47-1.37.04-.07-.41-.87.2-1.02.27-.06.7.27.87.21.09-.03.95-1.09,1.38-1.39.84-.58,1.8-1.02,2.54-1.42.38-.2.7-.5,1.12-.63l-.23-.49h1.06s-.53-.53-.53-.53h1.59s-.15-.82-.15-.82c.52.05,1.04-.76,1.11-.76,2.07-.07.93-.53,1.21-.77.21-.18,1.13-.23,1.46-.65.29-.36.2-.93.41-1.19.08-.1,1.98-1.22,2.05-.86l.04-1.04c1.73.13.38-1.64.5-1.87.76.48,1.07-.59.73-1.02-.11-.13-.58.14-.47-.3.78-.29.73.42.99.51.74.25,1.83.04,2.44.98.43.67-.29,1.07.56,1.32-.25,1.69-.67,3.26-1.21,4.87-1.31,3.94-3.35,5.33-5.98,8.43-.45.53-.25,1.05-.3,1.08-.18.13-.81.12-1.28.44-.66.46-1.01,1.3-1.42,1.63-2.26,1.86-4.68,4.09-7.37,5.25.11,1.09-.96.37-1.04,1.46l-.39-.53-.53,1.06c-.56.17-.31-.38-.52-.47-1.15-.48-.68.63-1.47.87l.53.26c-.65,1.06-2.01,1.11-2.89,1.62s-1.99,1.52-2.88,1.9c-2.12.9-4.89.86-7.1,1.92-.79-1.79-2.73.45-2.91.48-4.15.7-9.11.89-13.38.73-.91-.04-1.53-.64-2.4.12l.25-.77-5.55-2.04-1.47.69-.15-.4-.77.14.79-.93c-.49-1.22-1.22-.87-1.91-1.21-.42-.21-.71-1.07-1.79-.78.07-1.13.09-1.9-1.19-2.11l-.67.79-1.23-1.58-1.94.51c-.53-1.14.32-1.17.5-2.11l-1.35-.13.02-.66h-1.86s.53-1.59.53-1.59c.1-.12,2.78.73,2.8-.28l.91.15c-1.77-.84-3.92-.41-5.83-.93-.2-.79.81-.7,1.33-.8l-.27-.79-.64.28-.28-.54c-.34.1-.06,1.42-.66.79-.05-.05-.26-1.22-.35-1.45-.08-.2-.65-.07-.46-.8.02-.09.86-.11.23-1.41l-.98-.08c-.41-.62-.22-1.68-.42-2.23-.44-1.23-1.71-2.4-2.01-2.98-.23-.45.06-1.25-.24-1.72-.25-.4-1.04-.52-1.41-1.32-.41-.88-.36-2.12-.58-2.84C1.54,60.26.02,56.79,0,55.25c0-.62.49-2.38.54-3.14.16-2.13.3-4.21,1.22-6.03.2-.4-.37-1.22.89-1v-.66s-.79-.53-.79-.53c1.23-.62.25-3.29,1.86-3.05l-.27-.53h.8c.12-.1-.42-.47-.47-.7-.06-.26,1.69-4.34,2.01-4.79.42-.61,1.35-1,1.54-1.4.24-.51-.41-.7-.29-1.05.17-.5,1.85-3.15,2.27-3.78,2.44-3.65,5.41-5.96,8.36-8.94.84-.85,2.49-3.24,3.15-3.73.86-.63,3.04-.12,1.74-1.84l1.58-.28-.25-.51c.83.03,1.63-.62,1.08-1.45l.25-.28,1.59.13-.53-1.06.65.53c.24-.26.7-.23.95-.39.71-.48-.67-.54-.53-.93,1.15.15,1.96-.35,2.52-1.33.31.96,2.81.26,2.25-1.06h1.04c.1-.69.04-1.05.62-1.49.07-.05.25.12.39.07.07-.03.05-.41.23-.42,1.28-.12,3.07-1.17,4.36-1.94,1-.61,2.45-2.07,3.9-2.78S45.59-.02,47.19,0Z"/>
  <path class="cls-1" d="M85.8,30.62c2.47,1.23,3.27,2.12,5.22,4.04.19.18.7.11.89.33.09.11-.31,1.31.44,1.55.44.14,1.43-.31,2.06.72.24.98-2.03.56-2.12.66v.79c1.52.05,3.81-.14,3.98,1.86l-1.06-.79.27.79-1.86.66c.92,1.43,3.97-.06,3.97,1.99-1.12.24-1.12-.9-2.38-.53-.03.22,0,.39.06.6.44,1.45.74.66,1.37.74s1.87.26,2.01.92l-1.57.15-.02,1.04c-.24-.25-1.09-.27-1.05.13.08.98,1.6.1,2.08.08l.56-.75v1.86s.6,0,.6,0c.85.89-.89.8-.6,1.72,1.41.44,2.03,2.15,0,1.99l.31,1.02,1.02.04c.1.88-1.03.26-1.06,1.32.49.13,1.04.04,1.08.66.14,1.73-1.4.59-1.09,2.09l.53.29-.81,1.56,1.33,1.09-.32.62-2.06.58,1.31.81v.77s-1.58.28-1.58.28c-.26,1,1.23,1.34,1.08,2.23-.59.03-1.37,1.75-1.08,2.01.13.12.88-.26.79.26-.66-.06-.21.22-.71.72-.07.07-.38.03-.52.16-.61.56-1.05,1.66-2.21,1.78l.03.5c.7,0,.5.51.49,1.09-.91-.41-1.62.76-2.38,1.2l1.59.92c-1.2-.52-1.53.48-2.38.27-.14,1.08.11,1.19,1.06,1.46-.87.54-1.23,1.78-1.85,2.39-.43.42-.96.49-1.31.81-1.07.97-1.06,2.17-3.2,1.71l.27,1.06-2.79,1.06-.39-.53c.14.65-.56.43-.73.6-.13.13-.03.51-.14.63-.3.33-2.31.66-2.72,1.41l-.29-.55c-.52.23-1.32.14-1.77.29s.34.82-1.23,0c-.39,1.45-2.99,1.18-3.99,1.71-.76.41.11.38-1.32.78-2.27.64-4.9,1.75-7.3,1.6-.44-.03-1.07-.17-1.18-.66,1.48-.86,3.01-1.78,4.4-2.76,1.76-1.23,3.6-2.86,5.42-4,1.38-.86,4.83-3.53,6.09-5.11.42-.53.59-1.59,1.17-1.95.46-.29,1.72.37,2.26-.91l-.73-.77.24-.92,1.03-.16c-.72-.51-1.26-.68-1.06-1.73l2.38-.13c.04-.11-1.31-.54-1.33-1.32,0-.1.87-.64,1.06-1.62.22-1.18-.74-.74-.52-1.56.03-.1.52-.11.55-.3.09-.55-.39-1.49-.01-2.21l1.06.53v-1.33s-.52.27-.52.27l-.54-1.33.82-.15-.02-1.18-.53.13c.06-1.13.02-1.84.55-2.91l-.55-.53c1.15-.81,1.22-1.54,0-2.39l1.06-.4-.53-2.12,1.06.13c-.18-1.22-1.25-1.13-1.32-1.2-.12-.12.22-.88.21-1.19-.02-1.08-.29-1.66-1.01-2.4l.55-.29c-.16-1.44-.41-1.79-1.87-1.43v-.79s.8,0,.8,0c-.03-.75-.76-1.09-.26-1.85l-1.55-.04-.31-1.02,1.32.53-.67-1.33c-1.77-.25-2.44-.1-3.04-1.99l1.59-.26c.59-1-.59-.36-.92-.4-.28-.03-3.64-.62-2.79-1.33h1.06c-.29-.76-1.55-.38-2.24-.52l-.17-.78-2.36-.57-.02.77-1.31.03.27-.53c-.54.08-.76-.05-.94-.54h-.65s.53,1.06.53,1.06c-.72.3-.46-1.02-1.06-.53-.05.04-.01.41-.15.51-.33.24-.73.29-.9.43-.33.28-.2,1-.94,1.17-.6-.52.29-.51.34-.65.22-.64-.44-1.39-.21-2-1.26-.08-1.7.22-1.85,1.45l1.06.53-1.19.66.13-.79-.53.8c-1.04-.39-5.49.29-6.05-.07-.13-.08.06-.5-.18-.47-.25,1.04-1.24.36-2.08.27l-.18-.67c.86-.21.47-.84.79-1.33,2.16-3.28,9.7-5.48,13.45-5.94,5.73-.7,9.41.18,14.55,2.75Z"/>
</svg>